<?xml version="1.0" encoding="UTF-8" standalone="no"?>
<svg
   version="1.1"
   id="Layer_1"
   x="0px"
   y="0px"
   width="100%"
   viewBox="0 0 1024 1024"
   enable-background="new 0 0 1024 1024"
   xml:space="preserve"
   sodipodi:docname="AXIOM.svg"
   inkscape:version="1.4 (e7c3feb1, 2024-10-09)"
   xmlns:inkscape="http://www.inkscape.org/namespaces/inkscape"
   xmlns:sodipodi="http://sodipodi.sourceforge.net/DTD/sodipodi-0.dtd"
   xmlns="http://www.w3.org/2000/svg"
   xmlns:svg="http://www.w3.org/2000/svg"><defs
   id="defs19" /><sodipodi:namedview
   id="namedview19"
   pagecolor="#ffffff"
   bordercolor="#000000"
   borderopacity="0.25"
   inkscape:showpageshadow="2"
   inkscape:pageopacity="0.0"
   inkscape:pagecheckerboard="0"
   inkscape:deskcolor="#d1d1d1"
   inkscape:zoom="2.6548469"
   inkscape:cx="397.19804"
   inkscape:cy="474.60364"
   inkscape:window-width="1496"
   inkscape:window-height="695"
   inkscape:window-x="0"
   inkscape:window-y="38"
   inkscape:window-maximized="0"
   inkscape:current-layer="g19" />


















<g
   id="g19"
   transform="translate(-75.299067,75.705741)"><path
     fill="#000000"
     opacity="1"
     stroke="none"
     d="m 594.98253,126.13008 c 42.77419,74.38081 84.75258,148.71097 126.41232,223.2222 15.95817,28.54237 33.19072,56.2904 52.08625,83.00867 3.41294,4.82574 5.85822,5.94715 11.23007,2.4233 46.53553,-30.52597 93.2952,-60.70975 139.92325,-91.09501 40.15668,-26.16812 80.22658,-52.46952 120.34368,-78.69839 1.9495,-1.27465 3.985,-2.41791 6.0559,-3.66789 1.8035,2.67602 -0.4643,3.95221 -1.3857,5.34997 -24.5267,37.20657 -49.1397,74.35619 -73.7095,111.53435 -5.78694,8.75658 -11.78689,17.39522 -17.1078,26.43021 -4.63999,7.87875 -10.57179,14.0874 -18.25889,19.04253 -33.01161,21.27951 -63.0193,46.66076 -94.70717,69.75367 -6.32128,4.60679 -12.56564,9.31925 -18.35019,15.03047 30.28287,-8.88862 60.43155,-17.7591 89.01682,-30.86407 1.60145,1.90088 0.16872,2.85168 -0.54942,3.89562 -18.6335,27.08736 -37.3384,54.12588 -55.86784,81.28418 -2.82134,4.13509 -6.92912,6.4519 -10.75612,9.17462 -79.40039,56.48906 -159.73488,111.67684 -237.39964,170.58263 -6.62578,5.02548 -13.56592,9.64574 -20.06768,14.82144 -3.28977,2.61879 -5.59674,2.22758 -8.80829,-0.10427 -31.57434,-22.92596 -63.23131,-45.73849 -94.90888,-68.52193 -56.7633,-40.82577 -113.55366,-81.61396 -170.35342,-122.38893 -1.79739,-1.2904 -3.30657,-2.71427 -4.5622,-4.5687 -17.65915,-26.0801 -35.38711,-52.11354 -53.06273,-78.18247 -1.7155,-2.53008 -4.20991,-4.60905 -5.65732,-9.82378 28.42238,16.39291 57.8879,25.12795 88.13611,32.61824 0.0442,-3.56652 -2.41542,-4.27334 -4.01517,-5.48804 -36.91431,-28.03032 -73.91263,-55.9499 -111.96246,-82.43588 -3.64909,-2.5401 -6.65001,-5.459 -9.08247,-9.19527 -31.01646,-47.64067 -62.10968,-95.23134 -93.14913,-142.85709 -0.7965,-1.22212 -2.31128,-2.35403 -1.16253,-4.6126 4.52765,1.46693 8.01845,4.72081 11.87284,7.22612 49.1602,31.95397 98.27816,63.97306 147.37346,96.02671 35.32708,23.0646 70.60756,46.20058 105.90027,69.31779 6.0732,3.97798 6.52186,4.01365 10.59563,-2.34758 21.25735,-33.19369 41.88457,-66.78019 61.5922,-100.91418 30.60075,-53.00103 60.93054,-106.15845 91.37316,-159.25073 10.34401,-18.0401 20.67022,-36.09039 31.04223,-54.11434 0.94071,-1.63472 1.35886,-3.8277 4.11583,-4.3207 3.18151,3.60304 5.10342,8.15276 7.81453,12.70914 M 517.1665,348.66957 c -4.15896,-0.0209 -8.39642,0.46277 -12.46044,-0.16906 -8.17388,-1.27075 -12.49353,2.84181 -15.56617,9.6095 -1.43819,3.16763 -1.91742,6.36648 -1.92077,9.78285 -0.0386,39.5785 0.0219,79.15798 -0.26037,118.73495 -0.14797,20.75127 -1.09798,41.49883 0.10368,62.24578 1.08999,18.8205 -1.25356,37.57842 -1.00815,56.38749 0.0722,5.53935 1.74974,9.47934 6.61553,12.88414 31.48792,22.03322 61.98939,45.37144 90.83949,70.79486 3.04087,2.67976 5.0109,2.67302 7.98268,0.04 27.58809,-24.44425 56.63387,-47.08348 86.24663,-68.99769 3.76329,-2.7849 5.14769,-5.91641 5.0736,-10.51497 -0.34463,-21.36442 0.94906,-42.69987 0.74601,-64.09632 -0.25544,-26.90601 0.3111,-53.84983 0.14978,-80.77544 -0.0993,-16.57137 3.40705,-14.72872 -15.23675,-14.92728 -19.7851,-0.21077 -39.54479,1.70803 -59.36174,0.27388 -12.23457,-0.88542 -15.70657,-3.93085 -15.72151,-16.27696 -0.0295,-24.35967 10e-4,-48.71945 0.042,-73.07911 0.0195,-11.84024 0.0543,-11.85435 -11.50181,-11.86802 -21.19101,-0.0251 -42.38206,-0.0315 -64.76161,-0.0485 m 56.81837,-114.77555 c -17.39655,25.80983 -34.79307,51.61966 -52.17575,77.40891 3.69108,2.74569 6.75266,2.16785 9.66667,2.16992 25.36312,0.0177 50.72707,0.0881 76.0887,-0.11557 5.85226,-0.047 10.02005,1.94765 13.84568,6.4027 30.19731,35.16615 60.54323,70.20498 90.95484,105.18619 3.40661,3.91843 4.28302,8.30107 4.29123,13.14611 0.0788,46.55928 1.81575,93.10328 1.30305,139.66903 -0.0226,2.05387 -0.79943,4.36622 0.97002,6.11884 1.69413,0.28418 2.6974,-0.76394 3.76888,-1.6023 17.94141,-14.03776 35.77737,-28.21359 53.88205,-42.03739 4.4749,-3.41681 4.4593,-6.08542 1.85407,-10.77697 -10.47861,-18.8703 -20.6028,-37.94146 -30.61117,-57.06751 -39.85534,-85.17043 -97.95852,-159.27823 -150.40723,-237.38633 -3.79819,-5.68009 -7.21104,-11.71906 -12.79912,-16.93696 -3.57537,5.32775 -6.86002,10.22232 -10.63192,15.82132 M 450.85741,434.57043 c -18.69595,31.67794 -37.33263,63.39117 -56.15564,94.99342 -2.64028,4.43285 -2.22961,7.22265 2.00182,10.32099 17.08009,12.50634 33.5623,25.78769 49.88537,39.26576 1.30981,1.08154 2.56993,2.55882 5.01769,2.05842 1.48422,-3.3627 1.42754,-7.10748 1.43992,-10.79809 0.14793,-44.12253 0.26843,-88.24515 0.33222,-132.36785 0.002,-1.44953 2.0494,-13.24917 -2.52138,-3.47265 m 175.65603,-65.75726 c -1.10987,-0.94945 -1.63948,-2.88088 -3.66532,-2.24271 -1.10014,0.88738 -1.19724,2.08854 -1.19818,3.28056 -0.0131,15.84618 0.0316,31.69259 -0.0345,47.53849 -0.0195,4.67893 2.80225,5.54577 6.61286,5.5339 11.09225,-0.0345 22.18487,0.0271 33.2767,-0.0516 2.26959,-0.0161 5.23977,0.87061 6.43158,-1.76528 1.18156,-2.61329 -1.42547,-4.29381 -2.87214,-6.03689 -12.64808,-15.23954 -25.36363,-30.42309 -38.55096,-46.25648 z"
     id="path1"
     sodipodi:nodetypes="csscsscssssscccscssssscscccscsccsssssscccsssssssssscsssssssccccscssscssssscccssscssccccssssscc"
     style="stroke-width:1.18897" /><path
     fill="#000000"
     opacity="1"
     stroke="none"
     d="m 623.41895,502.09895 c -33.44456,0.0842 -66.31531,0.17075 -99.1861,0.25406 -6.84639,0.0174 -7.9174,-1.04731 -8.03725,-7.83448 -0.0699,-3.9585 -0.0436,-7.92705 -0.33178,-11.87129 -0.393,-5.37868 1.27921,-7.70876 7.30092,-7.63159 24.94715,0.31992 49.9008,0.13255 74.85205,0.13564 15.248,0.002 30.4984,0.16647 45.7427,-0.0686 5.1831,-0.0799 7.1257,1.4868 6.53361,6.86711 -0.5603,5.0904 -0.22133,10.28427 -0.20312,15.4324 0.0144,4.08825 -1.9418,5.53963 -5.96931,5.306 -6.6982,-0.38847 -13.41752,-0.41129 -20.70172,-0.5893 z"
     id="path17"
     style="stroke-width:1.18897" /><path
     fill="#000000"
     opacity="1"
     stroke="none"
     d="m 632.22478,544.42698 c 0.11037,11.13344 0.11045,11.0841 -10.35199,11.06145 -32.05819,-0.0694 -64.11639,-0.10119 -96.17459,-0.13893 -8.5277,-0.01 -8.98235,-0.35562 -9.61141,-8.867 -0.27613,-3.736 -0.004,-7.52327 -0.43447,-11.23457 -0.64268,-5.53818 2.05708,-6.75607 6.95139,-6.66601 11.67176,0.21477 23.35099,0.14495 35.02595,0.0442 22.35494,-0.19285 44.70884,-0.50878 67.0636,-0.7274 7.52085,-0.0736 7.55786,0.039 7.49044,7.64106 -0.0246,2.76989 0.0186,5.54043 0.0411,8.88717 z"
     id="path18"
     style="stroke-width:1.18897" /><path
     fill="#000000"
     opacity="1"
     stroke="none"
     d="m 611.69788,603.4163 c -0.70617,4.4217 -3.8257,4.1659 -6.51627,4.12555 -7.91177,-0.11843 -15.82217,-0.69826 -23.73009,-0.64507 -18.20857,0.12243 -36.41467,0.57257 -54.62309,0.76858 -9.36541,0.10087 -10.29375,-0.87975 -10.5649,-9.99704 -0.0999,-3.35995 0.0499,-6.73384 -0.1914,-10.08138 -0.38226,-5.30462 2.13752,-6.69693 7.12414,-6.66855 26.9268,0.15348 53.85781,0.22271 80.78106,-0.14198 6.20567,-0.0841 8.08057,2.18288 7.80292,7.8503 -0.23222,4.73971 -0.0342,9.50053 -0.0824,14.78959 z"
     id="path19"
     style="stroke-width:1.18897" /></g>
</svg>
