<svg xmlns="http://www.w3.org/2000/svg" xmlns:xlink="http://www.w3.org/1999/xlink" width="500" zoomAndPan="magnify" viewBox="0 0 375 374.999991" height="500" preserveAspectRatio="xMidYMid meet" version="1.0"><defs><clipPath id="1ab86b01c9"><path d="M 30 0 L 345 0 C 361.570312 0 375 13.429688 375 30 L 375 345 C 375 361.570312 361.570312 375 345 375 L 30 375 C 13.429688 375 0 361.570312 0 345 L 0 30 C 0 13.429688 13.429688 0 30 0 Z M 30 0 " clip-rule="nonzero"/></clipPath></defs><g clip-path="url(#1ab86b01c9)"><rect x="-37.5" width="450" fill="#000000" y="-37.499999" height="449.999989" fill-opacity="1"/></g><path fill="#ffffff" d="M 190.3125 73.914062 C 205.976562 101.152344 221.351562 128.375 236.605469 155.660156 C 242.453125 166.113281 248.761719 176.273438 255.683594 186.058594 C 256.933594 187.828125 257.828125 188.238281 259.792969 186.945312 C 276.835938 175.769531 293.960938 164.714844 311.035156 153.585938 C 325.742188 144.003906 340.414062 134.371094 355.105469 124.765625 C 355.820312 124.300781 356.566406 123.882812 357.324219 123.421875 C 357.984375 124.402344 357.15625 124.871094 356.816406 125.382812 C 347.835938 139.007812 338.820312 152.613281 329.824219 166.226562 C 327.703125 169.433594 325.507812 172.597656 323.558594 175.90625 C 321.859375 178.792969 319.6875 181.066406 316.871094 182.878906 C 304.78125 190.671875 293.792969 199.96875 282.191406 208.425781 C 279.875 210.113281 277.589844 211.839844 275.46875 213.929688 C 286.558594 210.675781 297.601562 207.425781 308.070312 202.625 C 308.65625 203.324219 308.128906 203.671875 307.867188 204.054688 C 301.042969 213.972656 294.195312 223.875 287.40625 233.820312 C 286.375 235.335938 284.871094 236.183594 283.46875 237.179688 C 254.390625 257.867188 224.972656 278.078125 196.53125 299.648438 C 194.105469 301.488281 191.5625 303.183594 189.179688 305.078125 C 187.976562 306.035156 187.132812 305.894531 185.957031 305.039062 C 174.394531 296.644531 162.800781 288.289062 151.199219 279.945312 C 130.410156 264.996094 109.613281 250.058594 88.8125 235.125 C 88.15625 234.652344 87.601562 234.132812 87.144531 233.453125 C 80.675781 223.902344 74.183594 214.367188 67.710938 204.820312 C 67.082031 203.894531 66.167969 203.132812 65.640625 201.222656 C 76.046875 207.226562 86.839844 210.425781 97.914062 213.167969 C 97.933594 211.863281 97.03125 211.605469 96.445312 211.160156 C 82.925781 200.894531 69.378906 190.667969 55.445312 180.96875 C 54.105469 180.039062 53.007812 178.972656 52.117188 177.601562 C 40.757812 160.15625 29.371094 142.726562 18.003906 125.285156 C 17.714844 124.839844 17.160156 124.425781 17.578125 123.597656 C 19.238281 124.132812 20.515625 125.328125 21.925781 126.242188 C 39.929688 137.945312 57.917969 149.671875 75.898438 161.410156 C 88.835938 169.855469 101.753906 178.328125 114.679688 186.792969 C 116.902344 188.25 117.066406 188.265625 118.558594 185.933594 C 126.34375 173.777344 133.898438 161.480469 141.113281 148.980469 C 152.320312 129.570312 163.429688 110.101562 174.578125 90.660156 C 178.363281 84.054688 182.144531 77.441406 185.945312 70.84375 C 186.289062 70.242188 186.441406 69.441406 187.453125 69.261719 C 188.617188 70.578125 189.320312 72.246094 190.3125 73.914062 M 161.816406 155.410156 C 160.292969 155.402344 158.742188 155.582031 157.253906 155.347656 C 154.261719 154.882812 152.679688 156.390625 151.554688 158.867188 C 151.027344 160.027344 150.851562 161.199219 150.851562 162.449219 C 150.835938 176.945312 150.859375 191.4375 150.753906 205.933594 C 150.699219 213.53125 150.351562 221.128906 150.792969 228.726562 C 151.191406 235.621094 150.332031 242.488281 150.421875 249.378906 C 150.449219 251.40625 151.0625 252.847656 152.847656 254.097656 C 164.375 262.164062 175.546875 270.710938 186.113281 280.023438 C 187.226562 281.003906 187.945312 281 189.035156 280.035156 C 199.136719 271.085938 209.777344 262.792969 220.621094 254.769531 C 222 253.75 222.503906 252.601562 222.476562 250.917969 C 222.351562 243.09375 222.824219 235.28125 222.75 227.445312 C 222.65625 217.59375 222.863281 207.726562 222.804688 197.863281 C 222.769531 191.796875 224.054688 192.46875 217.226562 192.398438 C 209.980469 192.320312 202.746094 193.023438 195.488281 192.496094 C 191.007812 192.171875 189.734375 191.058594 189.730469 186.539062 C 189.71875 177.617188 189.730469 168.695312 189.746094 159.773438 C 189.753906 155.4375 189.765625 155.433594 185.53125 155.429688 C 177.773438 155.417969 170.011719 155.417969 161.816406 155.410156 M 182.625 113.378906 C 176.253906 122.832031 169.882812 132.28125 163.515625 141.726562 C 164.867188 142.730469 165.988281 142.519531 167.058594 142.523438 C 176.34375 142.527344 185.632812 142.554688 194.921875 142.480469 C 197.066406 142.460938 198.589844 143.191406 199.992188 144.824219 C 211.050781 157.703125 222.164062 170.535156 233.300781 183.34375 C 234.546875 184.777344 234.867188 186.382812 234.871094 188.160156 C 234.902344 205.210938 235.535156 222.253906 235.347656 239.308594 C 235.339844 240.058594 235.054688 240.90625 235.703125 241.546875 C 236.324219 241.652344 236.691406 241.269531 237.085938 240.960938 C 243.65625 235.820312 250.1875 230.628906 256.816406 225.566406 C 258.457031 224.316406 258.449219 223.335938 257.496094 221.621094 C 253.660156 214.710938 249.949219 207.726562 246.285156 200.722656 C 231.691406 169.53125 210.414062 142.390625 191.203125 113.789062 C 189.8125 111.707031 188.5625 109.496094 186.519531 107.585938 C 185.207031 109.535156 184.003906 111.328125 182.625 113.378906 M 137.535156 186.867188 C 130.6875 198.46875 123.863281 210.082031 116.96875 221.65625 C 116 223.28125 116.152344 224.300781 117.703125 225.4375 C 123.957031 230.015625 129.992188 234.878906 135.96875 239.816406 C 136.449219 240.210938 136.910156 240.753906 137.808594 240.570312 C 138.351562 239.339844 138.332031 237.964844 138.335938 236.613281 C 138.390625 220.457031 138.433594 204.296875 138.457031 188.140625 C 138.457031 187.609375 138.886719 186.742188 137.535156 186.867188 M 201.859375 162.789062 C 201.453125 162.441406 201.261719 161.734375 200.519531 161.964844 C 200.117188 162.292969 200.078125 162.730469 200.078125 163.167969 C 200.074219 168.972656 200.089844 174.773438 200.066406 180.578125 C 200.058594 182.289062 201.09375 182.609375 202.488281 182.601562 C 206.550781 182.589844 210.613281 182.613281 214.675781 182.585938 C 215.507812 182.578125 216.59375 182.902344 217.03125 181.9375 C 217.464844 180.980469 216.507812 180.367188 215.976562 179.726562 C 211.347656 174.144531 206.691406 168.585938 201.859375 162.789062 Z M 201.859375 162.789062 " fill-opacity="1" fill-rule="nonzero"/><path fill="#ffffff" d="M 200.726562 211.597656 C 188.480469 211.628906 176.441406 211.660156 164.40625 211.691406 C 161.898438 211.699219 161.503906 211.308594 161.460938 208.824219 C 161.433594 207.371094 161.445312 205.917969 161.339844 204.476562 C 161.195312 202.503906 161.808594 201.652344 164.011719 201.679688 C 173.148438 201.796875 182.289062 201.730469 191.425781 201.730469 C 197.007812 201.730469 202.59375 201.789062 208.175781 201.703125 C 210.074219 201.675781 210.785156 202.25 210.570312 204.21875 C 210.363281 206.082031 210.488281 207.984375 210.496094 209.871094 C 210.5 211.367188 209.785156 211.898438 208.308594 211.8125 C 205.855469 211.671875 203.394531 211.664062 200.726562 211.597656 Z M 200.726562 211.597656 " fill-opacity="1" fill-rule="nonzero"/><path fill="#ffffff" d="M 203.953125 227.097656 C 203.992188 231.175781 203.992188 231.160156 200.160156 231.148438 C 188.421875 231.125 176.679688 231.113281 164.941406 231.097656 C 161.816406 231.09375 161.652344 230.96875 161.421875 227.851562 C 161.320312 226.484375 161.417969 225.097656 161.261719 223.738281 C 161.027344 221.710938 162.015625 221.265625 163.808594 221.296875 C 168.082031 221.375 172.359375 221.351562 176.636719 221.3125 C 184.820312 221.242188 193.007812 221.125 201.195312 221.046875 C 203.949219 221.019531 203.960938 221.0625 203.9375 223.84375 C 203.929688 224.859375 203.945312 225.875 203.953125 227.097656 Z M 203.953125 227.097656 " fill-opacity="1" fill-rule="nonzero"/><path fill="#ffffff" d="M 196.433594 248.703125 C 196.175781 250.320312 195.035156 250.226562 194.046875 250.210938 C 191.152344 250.167969 188.253906 249.957031 185.359375 249.976562 C 178.691406 250.019531 172.023438 250.1875 165.355469 250.257812 C 161.925781 250.292969 161.585938 249.9375 161.484375 246.597656 C 161.449219 245.367188 161.503906 244.132812 161.414062 242.90625 C 161.277344 240.960938 162.199219 240.453125 164.023438 240.464844 C 173.886719 240.519531 183.75 240.542969 193.609375 240.410156 C 195.878906 240.378906 196.566406 241.210938 196.464844 243.285156 C 196.378906 245.023438 196.453125 246.765625 196.433594 248.703125 Z M 196.433594 248.703125 " fill-opacity="1" fill-rule="nonzero"/></svg>